<svg xmlns="http://www.w3.org/2000/svg" xmlns:xlink="http://www.w3.org/1999/xlink" width="36" height="51" viewBox="0 0 36 51"><defs><path id="a" d="M0 .452h35.666V51H0z"/></defs><g fill="none" fill-rule="evenodd"><path fill="#B2E3D4" d="M18.914 35.252h-.081v-3.224h.08a1.613 1.613 0 0 1 0 3.224zm-2.162-5.224a1.613 1.613 0 0 1-1.611-1.611c0-.89.723-1.611 1.61-1.611h.082v3.222h-.081zm2.162 0h-.081v-3.222h1.972a1.001 1.001 0 0 0 0-2h-1.972v-1.613a1.001 1.001 0 0 0-2 0v1.613h-.081a3.615 3.615 0 0 0-3.611 3.61 3.615 3.615 0 0 0 3.61 3.612h.082v3.224H14.14a1 1 0 1 0 0 2h2.692v1.61a1 1 0 0 0 2 0v-1.61h.08a3.615 3.615 0 0 0 3.612-3.612 3.615 3.615 0 0 0-3.611-3.612z"/><g transform="translate(0 -.452)"><mask id="b" fill="#fff"><use xlink:href="#a"/></mask><path fill="#B2E3D4" d="M33.666 41.667c0 4.044-3.29 7.333-7.333 7.333h-17C5.29 49 2 45.71 2 41.667V28.794C2 20.063 9.102 12.96 17.833 12.96c8.73 0 15.833 7.102 15.833 15.833v12.873zM14.1 11.245l-4.93-4.81c-.837-.816-.809-1.923-.53-2.623.332-.837 1.043-1.345 1.95-1.36 1.18 0 2.24.703 2.7 1.79a1 1 0 0 0 1.842.001 2.93 2.93 0 0 1 2.701-1.791c1.181 0 2.241.703 2.7 1.79a1 1 0 0 0 1.842 0c.46-1.087 1.52-1.79 2.75-1.79.858.015 1.568.523 1.901 1.36.278.7.307 1.807-.53 2.623l-4.93 4.81c-.03.029-.043.068-.068.099a17.856 17.856 0 0 0-3.665-.383c-1.257 0-2.482.135-3.666.383-.025-.031-.037-.07-.067-.1zm9.587.724l4.206-4.103c1.268-1.237 1.657-3.12.991-4.794-.63-1.59-2.059-2.592-3.808-2.62a4.929 4.929 0 0 0-3.622 1.582 4.923 4.923 0 0 0-3.62-1.582 4.925 4.925 0 0 0-3.624 1.583c-.92-.992-2.239-1.582-3.7-1.582h-.002C8.84.48 7.413 1.483 6.781 3.072c-.666 1.676-.277 3.557.992 4.794l4.205 4.103C5.016 14.399 0 21.015 0 28.794v12.873C0 46.813 4.187 51 9.333 51h17c5.146 0 9.333-4.187 9.333-9.333V28.794c0-7.78-5.017-14.395-11.979-16.825z" mask="url(#b)"/></g></g></svg>