<svg xmlns="http://www.w3.org/2000/svg" xmlns:xlink="http://www.w3.org/1999/xlink" width="43" height="41" viewBox="0 0 43 41"><defs><path id="a" d="M0 .365h42.99V41H0z"/></defs><g fill="none" fill-rule="evenodd"><g transform="translate(0 -.365)"><mask id="b" fill="#fff"><use xlink:href="#a"/></mask><path fill="#B2E3D4" d="M28.078 39c-4.924 0-9.351-2.749-11.555-7.173a12.784 12.784 0 0 1-1.358-5.74c0-.45.027-.918.084-1.432.072-.667.197-1.322.371-1.96a12.854 12.854 0 0 1 2.848-5.21 12.928 12.928 0 0 1 9.61-4.31c7.12 0 12.912 5.792 12.912 12.912C40.99 33.207 35.197 39 28.076 39zm-7.476 0H2v-5.728h13.024c.037.067.078.13.116.195a16.18 16.18 0 0 0 .546.888c.091.14.187.275.284.41a14.947 14.947 0 0 0 1.67 1.964 13.716 13.716 0 0 0 .747.687c.122.105.244.208.37.31a14.95 14.95 0 0 0 1.245.898c.136.088.27.174.409.256.063.04.125.082.19.12zM2 3.994c0-.898.73-1.63 1.63-1.63h21.818c.898 0 1.63.732 1.63 1.63v4.098H2V3.994zm12.921 15.093c-.048.091-.09.185-.137.278a14.27 14.27 0 0 0-.62 1.39c-.136.352-.258.71-.365 1.072-.027.087-.058.172-.082.26-.125.445-.226.897-.308 1.355-.007.036-.018.07-.023.104H2.002v-5.728h13.68c-.016.025-.03.051-.044.076-.258.387-.498.785-.716 1.193zm-12.92 6.46h11.175c-.008.182-.011.362-.011.54 0 .523.035 1.041.09 1.556.015.156.04.311.061.467a16.78 16.78 0 0 0 .305 1.585c.101.397.22.788.352 1.177.037.106.066.212.103.316.011.028.018.057.027.084H2.002v-5.726zm24.15-14.232a15.806 15.806 0 0 0-1.466.267c-.287.068-.57.147-.85.231-.193.057-.384.113-.572.177-.292.101-.58.217-.865.335-.168.071-.338.134-.505.21-.332.153-.655.323-.976.5-.11.061-.225.112-.333.176a15.13 15.13 0 0 0-1.235.806c-.1.071-.19.153-.288.226-.296.227-.588.458-.87.707-.136.121-.262.253-.394.38-.172.162-.35.317-.512.488H2v-5.726h25.077v1.117c-.105.007-.209.026-.313.036-.206.018-.41.044-.614.07zm2.927-.089V3.994a3.634 3.634 0 0 0-3.63-3.63H3.629a3.633 3.633 0 0 0-3.628 3.63V40a1 1 0 0 0 1 1h27.077C36.3 41 42.99 34.31 42.99 26.087c0-7.885-6.157-14.343-13.913-14.86z" mask="url(#b)"/></g><path fill="#B2E3D4" d="M29.254 30.41h-.177v-3.687h.177c1.017 0 1.845.827 1.845 1.844a1.847 1.847 0 0 1-1.845 1.844zM26.9 24.724a1.846 1.846 0 0 1-1.844-1.844c0-1.018.827-1.845 1.844-1.845h.177v3.689H26.9zm2.354 0h-.177v-3.69h2.237a1 1 0 1 0 0-2h-2.237V17.19a1 1 0 0 0-2 0v1.844H26.9a3.849 3.849 0 0 0-3.844 3.845 3.848 3.848 0 0 0 3.844 3.844h.177v3.688h-3.02a1 1 0 1 0 0 2h3.02v1.845a1 1 0 0 0 2 0V32.41h.177a3.85 3.85 0 0 0 3.845-3.844 3.849 3.849 0 0 0-3.845-3.844z"/></g></svg>