<svg xmlns="http://www.w3.org/2000/svg" xmlns:xlink="http://www.w3.org/1999/xlink" width="43" height="43" viewBox="0 0 43 43"><defs><path id="a" d="M0 0h43v43H0z"/></defs><g fill="none" fill-rule="evenodd"><mask id="b" fill="#fff"><use xlink:href="#a"/></mask><path fill="#B2E3D4" d="M1.68 14.065V7.962c0-1.089.799-1.974 1.777-1.974h3.134v3.34c0 1.718 1.307 3.117 2.915 3.117 1.607 0 2.914-1.4 2.914-3.117v-3.34h17.611v3.34c0 1.718 1.307 3.117 2.916 3.117 1.604 0 2.913-1.399 2.913-3.117v-3.34h3.685c.98 0 1.776.885 1.776 1.974v6.103H1.681zm39.641 25.28c0 1.09-.796 1.978-1.776 1.978H3.457c-.978 0-1.777-.888-1.777-1.978v-23.6h39.641v23.6zM8.271 3.117c0-.793.554-1.436 1.235-1.436.68 0 1.235.643 1.235 1.436v6.21c0 .794-.555 1.437-1.235 1.437s-1.235-.643-1.235-1.436V3.117zm23.44 0c0-.793.553-1.436 1.236-1.436.679 0 1.235.643 1.235 1.436v6.21c0 .794-.556 1.437-1.235 1.437-.683 0-1.235-.643-1.235-1.436V3.117zm7.834 1.19H35.86v-1.19C35.86 1.398 34.551 0 32.947 0c-1.609 0-2.916 1.398-2.916 3.117v1.19h-17.61v-1.19C12.42 1.398 11.112 0 9.505 0S6.591 1.398 6.591 3.117v1.19H3.457C1.553 4.307 0 5.947 0 7.962v31.383C0 41.36 1.553 43 3.457 43h36.088C41.45 43 43 41.36 43 39.345V7.962c0-2.016-1.55-3.655-3.455-3.655z" mask="url(#b)"/></g></svg>