<svg xmlns="http://www.w3.org/2000/svg" xmlns:xlink="http://www.w3.org/1999/xlink" width="41" height="41" viewBox="0 0 41 41"><defs><path id="a" d="M0 .008h40.991V41H.001z"/></defs><g fill="none" fill-rule="evenodd"><g transform="translate(0 -.008)"><mask id="b" fill="#fff"><use xlink:href="#a"/></mask><path fill="#B2E3D4" d="M5.295 5.303a11.176 11.176 0 0 1 7.955-3.295c3.005 0 5.83 1.17 7.955 3.295a11.176 11.176 0 0 1 3.295 7.955c0 3.005-1.17 5.831-3.295 7.956a11.176 11.176 0 0 1-7.955 3.295c-3.005 0-5.83-1.17-7.955-3.295A11.178 11.178 0 0 1 2 13.258c0-3.005 1.17-5.83 3.295-7.955zM26.38 24.066l12.198 12.198-2.32 2.322-12.199-12.2 2.321-2.32zM13.25 26.51c3.203 0 6.227-1.139 8.628-3.208l1.22 1.218-1.16 1.16a1 1 0 0 0 0 1.415L35.55 40.707a1.002 1.002 0 0 0 1.414 0l3.734-3.736a.999.999 0 0 0 0-1.414L27.086 21.945a.999.999 0 0 0-1.414 0l-1.16 1.16-1.22-1.219a13.146 13.146 0 0 0 3.208-8.628 13.16 13.16 0 0 0-3.88-9.369A13.16 13.16 0 0 0 13.25.01a13.16 13.16 0 0 0-9.369 3.88 13.16 13.16 0 0 0-3.88 9.37c0 3.54 1.377 6.866 3.88 9.37a13.16 13.16 0 0 0 9.37 3.88z" mask="url(#b)"/></g><path fill="#B2E3D4" d="M8.065 18.436a.997.997 0 0 0 1.414 0l8.957-8.957a.999.999 0 1 0-1.414-1.414l-8.957 8.957a.999.999 0 0 0 0 1.414m1.753-9.228a.61.61 0 1 1-.002 1.219.61.61 0 0 1 .002-1.22m0 3.22a2.612 2.612 0 0 0 2.609-2.61c0-1.438-1.17-2.61-2.61-2.61a2.613 2.613 0 0 0-2.608 2.61 2.613 2.613 0 0 0 2.609 2.61m6.865 4.866a.61.61 0 1 1 .001-1.22.61.61 0 0 1-.001 1.22m0-3.22a2.613 2.613 0 0 0-2.61 2.61 2.613 2.613 0 0 0 2.61 2.61 2.612 2.612 0 0 0 2.609-2.61c0-1.44-1.17-2.61-2.61-2.61"/></g></svg>