<svg width="156" height="160" viewBox="0 0 156 160" xmlns="http://www.w3.org/2000/svg"><title>Group 12</title><g fill="none" fill-rule="evenodd"><path d="M134.455 49.805c-2.017 5.335-6.021 8.48-11.707 9.42-2.368.392-4.743.153-7.114.215-.724.018-1.841-1.775-1.611-2.455.12-.36.406-.263.639-.268.792-.019 1.585.008 2.377-.02 1.692-.06 2.707-1.043 2.735-2.618.03-1.625-1.04-2.774-2.753-2.786-4.912-.036-9.825-.02-14.737-.019-9.931 0-19.861.013-29.792-.003-1.413-.002-2.454.48-3.002 1.828-.487 1.197-.047 2.147.809 2.985.722.71 1.635.626 2.532.62.78-.005 1.56 0 2.367 0-.637 2.591-.637 2.613-3.036 2.585-2.89-.032-5.803.23-8.614-.786-5.691-2.054-10.347-7.707-9.774-14.858.496-6.189 4.444-11.57 10.99-13.584 1.358-.417 2.768-.622 4.202-.659 1.586-.042 2.785-1.182 2.829-2.608.047-1.492-1.2-2.724-2.837-2.774-.89-.027-1.78-.004-2.667-.004.648-4.395 7.394-9.14 13.749-5.11 2.838 1.798 4.01 1.445 5.43-1.635 3.753-8.13 11.937-12.31 19.57-11.494 9.495 1.014 16.273 7.311 17.87 16.105.056.312.159.613.215.925.162.89.178 1.592-1.126 1.253-.595-.154-1.262-.065-1.894-.039-1.633.065-2.662 1.122-2.663 2.701-.001 1.597.978 2.615 2.669 2.682 4.846.191 8.91 2.063 11.912 5.868 3.433 4.352 4.403 9.318 2.432 14.533m-2.595-22.06c-2.293-1.584-2.942-3.164-3.282-5.673-2.014-14.89-14.2-24.31-30.401-21.612-7.043 1.174-12.407 5.388-16.128 11.511-.603.991-1.026 1.065-2.063.69-8.623-3.108-18.06 2.43-19.454 11.472-.2 1.3-.735 1.86-1.767 2.444-7.59 4.307-11.693 13.075-10.244 21.272 1.596 9.031 9.326 17.38 21.597 16.956 3.505-.12 3.508-.054 3.929 3.341 1.156 9.317 9.622 17.207 18.972 17.68 11.188.567 20.15-6.658 22.11-17.754.186-1.05-.411-2.525.565-3.058.853-.466 2.162-.097 3.27-.097v-.074c.95 0 1.905.05 2.85-.014.946-.064 1.9-.167 2.82-.383 8.593-2.03 14.105-7.345 15.828-15.974 1.728-8.65-1.426-15.776-8.602-20.728" fill="#027451"/><path d="M149.935 96.696c-.162.787-.428 1.515-.936 2.149-7.777 9.723-14.77 20.033-22.381 29.88-2.214 2.866-4.74 4.763-8.267 5.812-13.856 4.119-27.753 8.04-41.947 10.847-4.463.88-8.717.64-12.991-1.058-5.477-2.178-10.93-4.41-16.082-7.26-2.45-1.355-4.882-2.163-7.642-1.793-1.554.209-1.94-.373-1.91-1.89.099-4.858.037-9.72.035-14.581-.002-4.965.027-9.932-.025-14.897-.012-1.082.35-1.48 1.407-1.58 3.07-.291 5.912-1.351 8.7-2.642 9.744-4.508 19.848-5.73 30.319-3.07 2.25.573 4.346 1.602 6.364 2.735 3.095 1.739 6.403 1.827 9.82 1.61 3.958-.252 7.48-2.068 11.264-2.91 3.432-.764 6.89-1.807 10.438-1.083 5.148 1.05 6.379 4.32 5.086 8.11-.526 1.545-1.863 2.546-3.19 3.426-4.69 3.109-9.756 4.979-15.465 5.285-5.198.278-10.408.672-15.533 1.743-.98.204-1.773.6-2.491 1.252-2.785 2.532-6.065 4.144-9.666 5.14-1.974.546-2.98 1.755-2.664 3.269.343 1.643 2.053 2.6 3.997 2.1 3.08-.79 6.2-1.813 8.556-3.903 2.947-2.614 6.357-3.411 9.985-3.52 5.802-.173 11.553-1.131 17.365-1.021a89.27 89.27 0 0 1 5.85.295c1.599.136 2.734-.502 3.645-1.745 5.889-8.04 12.662-15.27 20.077-21.915 1.61-1.443 3.244-2.67 5.604-2.382 2.063.252 3.096 1.574 2.678 3.597m3.304-6.426c-.813-.814-.977-1.532-.796-2.616.74-4.445-2.245-8.432-6.71-9.14-1.928-.306-3.777-.017-5.611.556-.475.148-.882.37-1.412-.145-3.948-3.843-8.765-4.433-13.304-1.582-5.554 3.489-10.403 7.769-14.222 13.14-.491.692-1.011 1.088-1.884 1.207-3.776.517-7.364 1.743-11 2.849-4.14 1.258-8.37 1.636-12.408-.748a23.884 23.884 0 0 0-6.13-2.523C67.94 88.2 56.54 89.558 45.528 94.665c-1.826.846-3.66 1.616-5.642 2.01-2.046.408-2.042.425-2.101-1.642-.153-5.39-3.435-8.566-8.864-8.574-3.33-.005-6.658-.001-9.986-.001v.012c-3.646 0-7.292-.032-10.937.009-4.221.049-7.668 3.367-7.87 7.568A125.922 125.922 0 0 0 0 100.384c.05 17.353 1.427 34.595 4.276 51.719.782 4.699 3.922 7.516 8.67 7.52a4407.8 4407.8 0 0 0 15.852-.011c5.629-.014 8.959-3.338 8.983-8.96.013-2.905-.006-5.811.019-8.718.004-.425-.223-1.182.399-1.19 1.66-.02 3.387-.511 4.976.326 4.2 2.213 8.518 4.18 12.839 6.145 7.46 3.39 14.938 5.094 23.295 3.182 14.194-3.25 28.257-6.9 42.186-11.13 3.388-1.027 5.983-2.81 8.172-5.568 8.309-10.47 15.904-21.47 24.02-32.081 2.723-3.561 2.42-8.481-.448-11.348" fill="#027451"/><path d="M32.247 123.101c0 9.187.005 18.372 0 27.558-.002 2.654-.74 3.414-3.354 3.421-5.227.012-10.453.013-15.68-.004-2.424-.008-3.193-.73-3.518-3.098-.812-5.933-1.774-11.848-2.431-17.798-.66-5.964-1.082-11.954-1.407-17.953-.363-6.7-.27-13.399-.291-20.1-.007-2.145.998-3.194 3.18-3.2 6.758-.024 13.515-.027 20.272.007 2.353.012 3.223.945 3.225 3.294.007 9.291.003 18.582.004 27.873" fill="#B2D2E3"/><path d="M127.088 102.17c-.104-1.63-.355-2.907-.9-4.094-.266-.583-.116-.98.263-1.421 3.879-4.508 8.265-8.439 13.326-11.576 1.592-.986 3.357-1.514 5.278-1.151 1.154.218 1.927.797 2.002 2.07.064 1.073-.107 1.731-1.491 1.757-3.34.064-5.74 2.084-8.07 4.195-3.52 3.19-6.927 6.493-10.408 10.22m-9.834-10.717c3.176-3.89 6.883-6.896 10.958-9.473 1.389-.878 2.929-1.131 4.548-.95.614.069 1.189.378 1.371.924.186.557-.504.697-.851.96-3.75 2.846-7.274 5.937-10.318 9.542-.509.602-.925.878-1.708.402-1.173-.714-2.54-.97-4-1.405" fill="#FFF"/><path d="M88.575 56.704c-2.02 4.562-.32 7.447 2.776 10.064-1.4-.048-2.707-.011-3.348 1.3-.672 1.377-.415 2.783.21 4.11.31.66.685 1.33 1.181 1.853 1.105 1.163 2.572 1.902 2.932 3.799.198 1.046 1.548 1.598 2.76 1.278 1.11-.294 2.04-.945 2.118-2.251.038-.623.202-1.044.753-1.424 4.398-3.042 4.773-7.44.983-11.177-.223-.22-.493-.392-.958-.755 1.708-.351 3.101-.73 3.477-2.434.34-1.538-.41-2.858-.892-4.366 2.106 0 4.102.038 6.096-.017.966-.026 1.237.66 1.595 1.288 2.768 4.855 1.943 11.993-1.97 16.372-4.139 4.63-9.315 6.515-15.375 5.006-6.032-1.502-9.813-5.487-11.29-11.553-.842-3.455-.483-6.776 1.29-9.92.465-.826.985-1.237 1.984-1.194 1.842.078 3.69.02 5.678.02" fill="#B2D2E3"/><path d="M96.997 62.772c-1.43-.321-2.413-.636-3.265-1.252-.493-.356-.829-.832-.553-1.477.278-.651.797-.884 1.51-.853.653.027 1.125.214 1.247.908.152.86.363 1.697 1.061 2.674M92.196 67.2c1.124.197 2.09.522 2.987 1.054.673.399.94.997.7 1.73-.192.59-.672.942-1.311.929-.778-.016-1.37-.48-1.432-1.201-.08-.913-.437-1.668-.944-2.511" fill="#B2E3D4"/><path d="M18.848 143.249c.006-1.56 1.1-2.59 2.718-2.562 1.436.025 2.745 1.34 2.697 2.71-.05 1.442-1.334 2.698-2.737 2.678-1.61-.022-2.685-1.155-2.678-2.826" fill="#027451"/></g></svg>