<svg width="159" height="127" viewBox="0 0 159 127" xmlns="http://www.w3.org/2000/svg"><title>Group 26</title><g fill="none" fill-rule="evenodd"><path d="M149.581 121.64H8.994c-2.872 0-3.723-.879-3.723-3.833l.003-109c0-2.57.956-3.507 3.573-3.507 23.483.001 46.965 0 70.448-.002 23.483-.002 46.966-.004 70.449 0 2.61 0 3.567.951 3.567 3.52v109.157c0 2.782-.897 3.665-3.73 3.665M148.845.01C133.464.008 118.082.003 102.701.002c-31.332 0-62.663-.007-93.994.003C3.21.007 0 3.282 0 8.807v109.325c0 5.581 3.233 8.788 8.862 8.792 4.904.005 9.807.009 14.711.009 41.809 0 83.618.003 125.427-.007 5.53 0 7.541-1.393 9.582-6.468V6.478C156.544 1.374 154.488.01 148.845.01" fill="#027451"/><path d="M31.832 68.734c4.181 0 8.362-.003 12.543 0 2.203.002 3.244.963 3.25 3.183.027 8.515.026 17.03.002 25.546-.005 1.925-1.042 3.03-2.946 3.038-8.62.035-17.24.036-25.86-.008-2.053-.011-3.012-1.075-3.015-3.11-.013-8.517-.014-17.034.002-25.55.003-2.093 1.045-3.09 3.171-3.095 4.284-.011 8.568-.004 12.853-.004m-.215-10.525c-4.232 0-8.465.008-12.697-.003-2.07-.006-3.121-1.06-3.123-3.157-.01-8.413-.01-16.825.003-25.24.004-2.4.952-3.375 3.386-3.382a4424.02 4424.02 0 0 1 25.24-.002c2.18.006 3.203 1.072 3.207 3.256.012 8.363.012 16.723-.003 25.085-.004 2.52-.947 3.434-3.47 3.439-4.181.009-8.362.003-12.543.004m68.823 26.383H61.442c-2.174 0-3.236-.849-3.26-2.594-.024-1.71 1.148-2.728 3.19-2.728 26.05-.004 52.1 0 78.15-.012 1.356 0 2.386.416 3.004 1.705.498 1.036.2 1.908-.427 2.727-.675.881-1.654.905-2.662.904-12.999-.01-25.998-.007-38.997-.007v.005zm-.093-36.962c13.103 0 26.206.011 39.31-.016 1.26-.003 2.204.37 2.812 1.493.494.912.38 1.805-.176 2.624-.673.99-1.678 1.218-2.835 1.216-11.71-.018-23.42-.005-35.13-.005-14.29.002-28.579.001-42.868 0-1.939 0-3.1-.833-3.27-2.332-.203-1.786.904-2.974 2.848-2.979 6.036-.017 12.072-.009 18.107-.01h21.202v.01zm.003 47.544c-12.956 0-25.911.005-38.867-.005-2.06 0-3.14-.774-3.293-2.265-.19-1.845 1.027-3.064 3.176-3.07 6.297-.022 12.594-.01 18.892-.01 19.562.001 39.125.002 58.687.011.563 0 1.144.002 1.686.131 1.365.323 2.282 1.581 2.133 2.818-.163 1.362-1.15 2.333-2.62 2.358-3.404.056-6.812.035-10.218.036-9.86.003-19.717.001-29.576.001v-.005zm.002-58.123c13.008 0 26.016.006 39.024-.009 1.313 0 2.448.196 3.109 1.521.472.946.342 1.81-.226 2.62-.687.976-1.704 1.231-2.851 1.23-12.389-.009-24.777-.005-37.166-.006-13.576-.002-27.152-.002-40.728-.01-2.094-.002-3.281-.952-3.331-2.617-.05-1.659.992-2.7 2.835-2.708 5.523-.026 11.046-.018 16.57-.02 7.588-.002 15.176 0 22.764 0m-7.877-5.244c-10.314 0-20.629.004-30.944-.004-1.989-.002-3.138-.808-3.327-2.267-.243-1.866.927-3.084 3.103-3.1 4.796-.036 9.592-.024 14.388-.024 15.73.002 31.46.008 47.19.012 2.694.001 4.048.92 4.022 2.73-.027 1.78-1.326 2.652-3.953 2.653H92.475zm-.064 42.217c-10.367-.001-20.733.002-31.1-.003-1.867-.001-2.875-.7-3.092-2.101-.307-1.968.877-3.183 3.127-3.184 11.605-.006 23.21-.006 34.814-.006 9.232 0 18.464.009 27.696-.004 1.388-.002 2.39.487 2.864 1.856.437 1.255-.042 2.213-.989 2.996-.649.536-1.449.446-2.22.446h-31.1z" fill="#027451"/><path d="M29.113 80.814c-.045-.025-.097-.042-.135-.076-1.937-1.754-3.25-1.916-4.499-.555-1.136 1.239-.86 2.746.808 4.413 1.386 1.385 2.764 2.779 4.16 4.155 1.56 1.54 3.008 1.554 4.55.021 2.63-2.613 5.241-5.245 7.83-7.84.527.169.367.538.368.806.012 4.022-.022 8.046.031 12.067.013 1.028-.326 1.307-1.32 1.301-6.189-.038-12.378-.035-18.566-.002-.929.005-1.247-.256-1.24-1.221.038-6.187.03-12.376.008-18.564-.003-.843.103-1.318 1.15-1.312 6.133.044 12.27.022 18.745.022-1.112 1.439-2.204 2.514-3.513 3.381-2.165 1.369-4.596 2.171-6.904 3.232-.465.214-.95.384-1.473.172" fill="#B2D2E3"/><path d="M29.113 80.814c2.307-.997 4.614-1.991 6.918-2.991.47-.204.912-.491 1.46-.413-1.744 1.795-3.497 3.581-5.225 5.39-.449.471-.813.523-1.263.02-.613-.684-1.259-1.339-1.89-2.006m2.636-48.964c3.043 0 6.087.03 9.129-.019.962-.015 1.357.211 1.35 1.274-.047 6.19-.038 12.38-.008 18.568.005.917-.246 1.263-1.216 1.258a1479.29 1479.29 0 0 0-18.724.002c-1.012.007-1.184-.398-1.18-1.28.028-6.138.037-12.277-.007-18.414-.008-1.057.26-1.44 1.372-1.414 3.093.07 6.189.024 9.284.024" fill="#B2D2E3"/></g></svg>