<svg width="142" height="149" viewBox="0 0 142 149" xmlns="http://www.w3.org/2000/svg"><title>Group 10</title><g fill="none" fill-rule="evenodd"><path d="M6.513 145.839c.017-5.29.096-10.582.01-15.87-.024-1.512.446-1.804 1.86-1.796 10.39.062 20.782.053 31.172.013 1.164-.004 1.568.266 1.548 1.504-.08 5.29-.054 10.58-.067 15.872.135 1.128.875 1.781 1.798 2.29H5c.59-.607 1.395-1.052 1.513-2.013z" fill="#B2D2E3"/><path d="M134.475 104.91c-.633 1.637-1.444 2.418-3.247 2.456-1.874.038-2.894.893-2.92 2.443-.027 1.533.845 2.34 2.675 2.504.294.026.862-.153.79.313-.104.674-.273 1.457-1.05 1.739-.345.124-.761.062-1.144.062-7.413.002-14.826.002-22.24 0-1.473 0-2.619-1.422-2.352-2.858.157-.842.746-.387 1.132-.38 1.225.018 1.996-.566 2.415-1.67.441-1.166.043-2.192-.927-2.764-4.53-2.672-7.322-6.825-9.906-11.21-2.935-4.983-6.26-9.69-10.506-13.666-.784-.734-.488-1.079.21-1.457 1.468-.793 2.949-.79 4.386.06 1.824 1.078 3.473 2.403 5.137 3.709.476.374.605.807.587 1.371-.022.672-.049 1.356.046 2.017.2 1.388 1.244 2.237 2.582 2.193 1.368-.044 2.286-.915 2.331-2.41.106-3.554.078-7.112.215-10.662.279-7.212.627-14.42.958-21.63.038-.831.176-1.635 1.058-2.055 1.167-.556 2.296.304 2.301 1.82.017 4.766.007 9.532.008 14.297 0 4.765-.009 9.53.005 14.295.004 1.34.566 2.33 1.957 2.65 1.177.273 2.048-.196 2.695-1.184.373-.57.3-1.202.302-1.819.012-4.043.071-8.087-.026-12.128-.032-1.32.468-1.529 1.573-1.418 1.728.174 3.024 1.49 3.03 3.235.012 3.899-.033 7.798.005 11.697.022 2.235 1.898 3.552 3.648 2.621 1.055-.561 1.37-1.514 1.36-2.662-.03-2.936.05-5.876-.05-8.807-.047-1.392.565-1.52 1.654-1.3 1.787.36 2.87 1.553 2.9 3.408.047 2.743.005 5.488.035 8.23.014 1.249.486 2.257 1.78 2.664 1.154.362 2.07-.025 2.788-.96.409-.534.414-1.162.416-1.79.004-1.925.05-3.852-.012-5.775-.035-1.109.435-1.108 1.194-.712 1.11.578 1.624 1.589 1.916 2.74.963 3.792 1.264 7.674 1.383 11.56.116 3.776.321 7.571-1.092 11.233m-1.979 16.032c-.092 3.392-.012 3.385-3.394 3.376-3.802-.01-7.604-.003-11.407-.003v-.005c-4.475 0-8.951-.028-13.427.02-.965.011-1.333-.177-1.33-1.242.01-3.663-.034-3.663 3.664-3.663 8.085.001 16.17.024 24.256-.022 1.184-.008 1.675.177 1.638 1.54M96.907 65.195c-17.616-.032-35.232-.026-52.849-.017-.676.001-1.073-.022-1.232-.913-.888-4.965-2.589-6.384-7.741-6.586-.616-.023-.715-.264-.717-.776-.007-.912-.001-1.832-.101-2.736-.389-3.51-3.413-6.239-6.932-6.298-3.674-.06-6.774 2.472-7.266 6.055-.139 1.004-.49 1.2-1.463 1.138-4.247-.27-7.365 2.666-7.483 6.938-.01.337.08.7-.017 1.005-.227.72.645 1.853-.678 2.144-1.549.34-2.968-.403-3.417-1.704a3.942 3.942 0 0 1-.187-1.265c-.007-17.665-.008-35.33.001-52.994.002-2.334.875-3.18 3.267-3.181C30.355 5.999 50.62 6.002 70.882 6c20.264-.002 40.528-.001 60.791-.003 2.419 0 3.324.876 3.324 3.281.003 17.568.003 35.136 0 52.704-.001 2.25-.916 3.182-3.127 3.186-4.91.009-9.818.018-14.728-.014-1.53-.01-2.976-.71-4.544-.61-.855.056-.613-.702-.615-1.172-.02-2.888-.001-5.777-.012-8.664-.014-4.01-2.73-6.896-6.514-6.94-3.852-.047-6.703 2.849-6.835 6.832-.105 3.125-.342 6.245-.473 9.37-.037.867-.258 1.227-1.242 1.225M45.427 88.06c1.453-1.103 2.792-2.359 4.259-3.442 1.26-.93 2.699-1.486 4.319-1.22.816.134 1.143.478.4 1.199-3.896 3.78-6.973 8.173-9.695 12.845-2.174 3.732-5.502 6.229-9.164 8.343-.457.263-.924.51-1.37.791-1.091.69-1.376 1.747-1.042 2.89.309 1.052 1.126 1.717 2.271 1.636 1.154-.083 1.246.338.987 1.332-.344 1.32-.88 1.93-2.428 1.91-7.362-.1-14.724-.044-22.087-.044-.337 0-.676.025-1.01-.011-.935-.099-1.138-.897-1.145-1.561-.008-.782.719-.35 1.12-.369 1.345-.067 2.296-.898 2.422-2.18.124-1.266-.638-2.373-1.923-2.65-1.227-.266-2.658.117-3.538-1.183-1.07-1.58-1.766-3.338-1.84-5.22-.245-6.35-.107-12.698.46-19.03.213-2.391.437-4.782.665-7.173.04-.43.11-.857.19-1.281.198-1.06.843-1.633 1.923-1.492 1.043.133 1.34.861 1.356 1.862.082 5.055-.321 10.096-.399 15.148-.03 2.041 1.195 3.237 2.98 2.89 1.193-.232 1.945-1.317 2.014-2.961.112-2.643.213-5.287.304-7.93.215-6.202.42-12.403.635-18.605.013-.38.025-.776.131-1.138.298-1.008 1.003-1.545 2.053-1.384.953.144 1.523.713 1.525 1.767.015 6.348.047 12.695.071 19.043.007 1.733-.028 3.466.026 5.197.038 1.228.672 2.068 1.892 2.425 1.01.293 1.807-.108 2.461-.795.643-.675.626-1.575.625-2.448-.004-4.908-.002-9.817-.002-14.725h.053c0-5.093.006-10.187-.003-15.28-.002-1.325.712-2.09 1.923-2.323 1.06-.204 1.907.325 2.322 1.295.214.502.19 1.127.19 1.696.01 9.576.006 19.15.012 28.725.001.764-.07 1.534.21 2.283.427 1.145 1.316 1.73 2.442 1.648 1.17-.087 2.086-.75 2.262-2.046.085-.615.09-1.245.091-1.869.014-6.589.012-13.178.048-19.767.002-.554-.075-1.17.278-1.674.392-.562.951-.793 1.625-.676.868.15 1.363.679 1.432 1.56.272 3.45.57 6.898.79 10.35.364 5.764.403 11.535.307 17.308-.028 1.69.95 2.724 2.469 2.74 1.513.015 2.558-1.012 2.421-2.719-.13-1.621.432-2.738 1.683-3.687m-10.172 36.248c-8.17.007-16.34-.017-24.509.038-1.173.007-1.436-.367-1.42-1.468.05-3.44.007-3.445 3.42-3.45 3.845-.005 7.69 0 11.534 0 4.421 0 8.843.022 13.264-.02.931-.008 1.34.133 1.331 1.222-.033 3.665.016 3.674-3.62 3.678m104.273.13c-1.274-.883-1.529-2.087-1.509-3.518.025-1.728.334-3.527-.194-5.17-.552-1.716-.387-3.285.408-4.737 3.515-6.418 3.214-13.362 2.853-20.294-.166-3.212-.48-6.435-1.276-9.571-1.03-4.055-3.316-6.897-7.666-7.647-.678-.116-1.317-.325-1.794-.845-.41-.448-1.13-.897-.871-1.527.24-.584 1.036-.247 1.587-.315.19-.024.384-.004.576-.006 5.643-.035 8.982-3.35 8.987-8.989.016-17.469.016-34.937 0-52.407-.005-5.689-2.829-8.474-8.517-8.474H9.687c-.338 0-.674-.01-1.011.003-2.13.075-4.04.551-5.502 2.334-1.46 1.78-2 3.763-1.999 6.01.012 17.518.014 35.034-.004 52.552-.002 1.932.347 3.731 1.406 5.357.559.856.598 1.675.054 2.56-.666 1.085-.968 2.306-1.122 3.555C.527 81.285.14 89.297.004 97.331c-.078 4.683 1.01 9.055 2.982 13.248.391.834.772 1.67.841 2.595.231 3.119-.127 6.23-.146 9.347-.004.596-.375 1.107-.87 1.44-1.302.88-1.639 2.137-1.634 3.628.018 5.968-.012 11.936.018 17.902.012 2.403.229 2.672 2.422 3.462H5.06c2.162-.684 2.245-.776 2.31-2.538.282-4.514.06-9.034.125-13.551.036-2.517.327-2.84 2.826-2.843 9.134-.01 18.268-.006 27.401-.003.337.001.673.006 1.01.022 1.2.058 1.844.694 1.965 1.88.053.528.055 1.057.035 1.585-.138 3.734-.152 7.468.024 11.2.036.766.15 1.531-.012 2.295.12 1.311 1.148 1.618 2.151 1.953h1.733c2.034-.72 2.376-1.064 2.397-3.038.068-6.158.05-12.316.009-18.474-.007-.93-.106-1.942-.866-2.518-1.643-1.245-1.85-2.902-1.72-4.751.061-.862-.026-1.733.012-2.596.06-1.4-.373-2.558-1.518-3.4-.601-.441-.824-1.025-.805-1.749.02-.77.045-1.541.009-2.31-.057-1.21.397-2.138 1.37-2.851 2.77-2.03 4.822-4.71 6.503-7.638 2.583-4.497 5.786-8.49 9.32-12.254 1.62-1.727 1.784-4.72.469-6.703-1.59-2.395-5.035-3.664-8.192-3-2.147.453-4.125 1.283-5.86 2.658-.565.446-1.238.708-1.26-.388-.051-2.547-.464-5.075-.34-7.632.05-1.033.527-1.485 1.52-1.493.384-.002.769-.01 1.154-.01h47.34c.48 0 .961-.007 1.443.025.838.06 1.352.485 1.413 1.343a22.52 22.52 0 0 1-.006 3.46c-.069.82-.51 1.11-1.285.705-.384-.2-.742-.445-1.122-.653-3.543-1.936-7.079-1.932-10.573.092-3.913 2.267-4.472 6.332-1.35 9.536 3.641 3.737 6.774 7.86 9.445 12.344 1.525 2.56 2.835 5.329 4.98 7.4 1.947 1.88 2.533 3.968 2.27 6.488-.02.192-.015.387 0 .577.075.973-.208 1.792-.954 2.454-.769.682-1.051 1.571-1.058 2.586-.013 1.492-.042 2.983-.004 4.474.026 1.086-.274 1.968-1.146 2.66-1.05.833-1.47 1.933-1.466 3.287.016 6.014-.022 12.028.024 18.041.016 2.225.324 2.59 2.41 3.328h1.732c1.155-.347 2.197-.799 2.148-2.278-.007-4.66-.004-9.32.008-13.978.005-2.276.405-2.668 2.713-2.673 5.766-.017 11.533-.007 17.3-.006 3.652.001 7.305-.027 10.957.015 1.755.02 2.2.498 2.263 2.244.019.528.001 1.057.01 1.586.065 4.178-.144 8.359.124 12.537.066 1.78.146 1.868 2.312 2.553h1.444c1.448-.345 2.41-1.069 2.416-2.736.022-6.402.05-12.801-.022-19.201-.01-.98-.21-1.985-1.067-2.579" fill="#027451"/><path d="M100.437 146.94c.017-5.29.096-10.582.01-15.87-.024-1.512.446-1.804 1.86-1.796 10.39.062 20.782.053 31.172.013 1.164-.004 1.568.266 1.548 1.504-.08 5.29-.054 10.58-.067 15.872.135 1.128.874 1.781 1.797 2.29H98.924c.59-.607 1.395-1.052 1.513-2.013zm-93.585-.279c3.485-.537 6.998-.215 10.489-.2 2.58.01 5.184.052 7.753.02 4.933-.059 9.87.166 14.8-.096.714-.039 1.197.233 1.524.84.225.805.96 1.172 1.477 1.727H5.06c.916-.513 1.67-1.154 1.79-2.29z" fill="#B2D2E3"/><path d="M70.867 57.746c-6.346 0-12.693.003-19.039-.003-2.269-.003-3.127-.862-3.155-3.107a62.539 62.539 0 0 1-.006-1.008c.006-2.407.866-3.255 3.313-3.255 5.625-.002 11.25-.003 16.875-.001 6.971.002 13.942.017 20.913.002 1.307-.003 2.667.031 3.079 1.512.47 1.699.79 3.503-.434 5.087-.588.762-1.475.79-2.363.787-6.395-.01-12.79-.005-19.183-.005v-.01zM89.393 38.05c3.238.003 3.761.593 3.753 4.238-.006 2.417-.917 3.21-3.686 3.204-3.23-.006-3.822-.661-3.819-4.226.004-2.504.837-3.218 3.752-3.216M52.36 33.141c-2.701.014-3.676-.783-3.693-3.018-.026-3.597.63-4.444 3.456-4.458 3.065-.016 4.047.743 4.06 3.137.02 3.726-.507 4.322-3.822 4.34m37.004-.003c-3.198-.001-3.73-.612-3.727-4.282 0-2.295.964-3.197 3.417-3.196 3.469.002 4.092.63 4.088 4.12-.002 2.657-.792 3.36-3.778 3.358m-73.94.001c-3.21-.013-3.737-.62-3.718-4.286.013-2.468.927-3.199 3.993-3.19 2.872.01 3.535.84 3.514 4.407-.013 2.307-.967 3.08-3.789 3.07m110.895.006c-3.116-.004-3.714-.65-3.71-4.01.004-2.751.842-3.479 4.001-3.472 2.775.005 3.517.847 3.508 3.98-.008 2.793-.781 3.505-3.8 3.502M19.215 41.681c.015 2.909-.776 3.803-3.378 3.818-3.214.018-4.115-.679-4.13-3.195-.02-3.363.603-4.244 3.005-4.254 3.829-.016 4.488.515 4.503 3.631m36.96.031c-.002 3.1-.72 3.781-3.978 3.78-2.736-.002-3.535-.83-3.53-3.65.006-3.211.637-3.804 4.053-3.8 2.76.004 3.458.745 3.455 3.67m24.575.171c-.002 2.947-.67 3.609-3.64 3.608-3.187 0-3.759-.624-3.76-4.1-.001-2.48.788-3.254 3.023-3.366 4.233-.213 4.544 1.225 4.377 3.858m45.708-3.834c2.755-.01 3.655.77 3.661 3.178.01 3.604-.597 4.26-3.934 4.271-2.617.007-3.49-.847-3.6-3.172-.157-3.33.768-4.546 3.873-4.277M43.786 41.78c-.02 3.212-.64 3.754-4.264 3.717-2.386-.024-3.162-.941-3.143-3.716.024-3.354.512-3.757 4.509-3.739 2.222.011 2.916.906 2.898 3.738m70.274-3.73c2.77-.264 3.813.824 3.693 3.83-.116 2.907-.736 3.619-3.675 3.62-3.058 0-3.76-.687-3.757-3.673.001-3.209.563-3.775 3.74-3.777m-70.269-8.558c.193 2.483-.495 3.862-4.168 3.678-2.544-.128-3.249-.838-3.24-3.752.012-3.184.65-3.766 4.116-3.753 2.606.009 3.3.816 3.292 3.827m36.958.035c.23 2.366-.491 3.823-4.049 3.64-2.74-.142-3.357-.765-3.358-4.073 0-2.696.809-3.442 3.728-3.436 3.057.007 3.681.662 3.68 3.869m36.969-.107c.016 2.788-.71 3.709-2.938 3.727-3.748.03-4.444-.495-4.461-3.372-.02-3.277.642-4.097 3.323-4.11 3.478-.018 4.056.514 4.076 3.756M27.854 38.05c2.988-.006 3.642.639 3.646 3.59.003 3.218-.637 3.857-3.87 3.859-2.68.002-3.438-.763-3.558-3.146-.193-3.822.986-4.5 3.782-4.303m70.178 3.676c0-3.196.537-3.678 4.094-3.676 2.755.002 3.315.717 3.306 4.216-.008 2.415-.891 3.235-3.486 3.23-3.32-.005-3.915-.577-3.914-3.77M24.097 29.338c.002-3.027.66-3.676 3.727-3.673 3.071.001 3.69.708 3.675 4.198-.01 2.49-.836 3.285-3.406 3.284-3.44-.003-3.998-.535-3.996-3.81m73.935-.05c0-2.97.659-3.626 3.628-3.623 3.156.003 3.767.67 3.762 4.107-.005 2.562-.77 3.275-3.15 3.392-3.922.192-4.443-1.202-4.24-3.876m-36.977.073c.005-3.112.652-3.71 4-3.702 2.576.008 3.405.85 3.4 3.46-.007 3.587-.487 4.028-4.378 4.023-2.336-.004-3.026-.868-3.022-3.78m.003 12.297c-.017-2.753.694-3.604 3.02-3.616 3.76-.017 4.362.454 4.374 3.429.014 3.235-.64 4.007-3.398 4.02-3.415.016-3.976-.521-3.996-3.833m-45.563-20.88c-3.265 0-3.79-.579-3.789-4.185 0-2.448.838-3.182 3.637-3.179 3.315.003 3.87.593 3.866 4.113-.003 2.534-.82 3.25-3.714 3.25m110.775-.013c-1.304.078-2.748.148-3.314-1.325-.607-1.578-.725-3.32.1-4.867.968-1.808 5.816-1.73 6.67.116.699 1.511.685 3.207.038 4.744-.642 1.527-2.112 1.416-3.494 1.332m.098 36.983c-2.845.015-3.748-.72-3.767-3.06-.029-3.686.514-4.3 3.816-4.315 2.793-.012 3.693.75 3.696 3.138.005 3.634-.513 4.22-3.745 4.237M89.359 20.778c-3.129 0-3.72-.631-3.726-3.964-.001-2.553.82-3.405 3.282-3.41 3.646-.006 4.23.533 4.229 3.9-.003 2.784-.754 3.474-3.785 3.474m-36.959.011c-2.89.003-3.726-.726-3.725-3.247 0-3.624.502-4.126 4.127-4.13 2.572-.002 3.383.825 3.383 3.451-.002 3.273-.628 3.922-3.785 3.926m65.318-3.685c.003 3.042-.575 3.675-3.352 3.675-3.472 0-4.04-.51-4.045-3.615-.004-3.155.569-3.748 3.619-3.75 3.25 0 3.775.512 3.778 3.69m-36.968.064c-.006 3.21-.505 3.625-4.323 3.612-2.43-.007-3.092-.815-3.085-3.752.008-3.03.638-3.63 3.809-3.624 3.064.005 3.607.571 3.6 3.764M43.79 17.15c.018 2.868-.64 3.629-3.157 3.639-3.564.015-4.23-.504-4.246-3.309-.02-3.329.544-4.045 3.201-4.065 3.699-.027 4.18.4 4.202 3.735m20.891 3.633c-2.845.02-3.613-.618-3.625-3.013-.017-3.919.357-4.342 3.87-4.363 2.707-.015 3.526.716 3.539 3.164.02 3.665-.45 4.189-3.784 4.212m-37.001-.004c-3.168-.014-3.597-.517-3.583-4.203.011-2.67.658-3.176 4.041-3.16 2.85.011 3.365.657 3.352 4.204-.01 2.553-.756 3.172-3.81 3.159m73.964-.001c-3.213-.001-3.612-.473-3.615-4.277-.002-2.363.755-3.09 3.225-3.09 3.689.001 4.17.438 4.165 3.784-.004 3.037-.581 3.584-3.775 3.583" fill="#027451"/></g></svg>